M48
; DRILL file {KiCad 9.0.6} date 2026-03-25T12:48:49-0400
; FORMAT={-:-/ absolute / metric / decimal}
; #@! TF.CreationDate,2026-03-25T12:48:49-04:00
; #@! TF.GenerationSoftware,Kicad,Pcbnew,9.0.6
; #@! TF.FileFunction,Plated,1,4,PTH
FMAT,2
METRIC
; #@! TA.AperFunction,Plated,PTH,ViaDrill
T1C0.300
; #@! TA.AperFunction,Plated,PTH,ComponentDrill
T2C1.000
; #@! TA.AperFunction,Plated,PTH,ComponentDrill
T3C1.500
; #@! TA.AperFunction,Plated,PTH,ComponentDrill
T4C1.700
%
G90
G05
T1
X84.81Y-87.814
X86.71Y-90.014
X87.11Y-93.014
X87.81Y-87.814
X89.31Y-93.014
X89.61Y-89.914
X93.01Y-97.664
X93.01Y-99.414
X94.26Y-97.664
X94.26Y-99.414
X95.51Y-97.664
X95.51Y-99.414
X96.76Y-97.664
X96.76Y-99.414
X98.01Y-97.664
X98.01Y-99.414
X101.61Y-97.414
X101.61Y-99.514
X117.682Y-97.302
X117.71Y-99.414
X120.76Y-97.664
X120.76Y-99.164
X122.01Y-97.664
X122.01Y-99.164
X123.26Y-97.664
X123.26Y-99.164
X124.51Y-97.664
X124.51Y-99.164
X125.76Y-97.664
X125.76Y-99.164
X130.71Y-88.114
X130.71Y-90.514
X130.71Y-93.314
X132.81Y-88.114
X133.11Y-90.614
X133.11Y-93.214
T2
X86.11Y-85.114
X88.65Y-85.114
X131.67Y-85.414
X134.21Y-85.414
T3
X88.15Y-98.499
X131.895Y-98.454
T4
X85.61Y-95.959
X85.61Y-101.039
X90.69Y-95.959
X90.69Y-101.039
X129.355Y-95.914
X129.355Y-100.994
X134.435Y-95.914
X134.435Y-100.994
M30
