%TF.GenerationSoftware,KiCad,Pcbnew,9.0.6*%
%TF.CreationDate,2026-03-25T12:48:42-04:00*%
%TF.ProjectId,MTJ_chipholder,4d544a5f-6368-4697-9068-6f6c6465722e,rev?*%
%TF.SameCoordinates,Original*%
%TF.FileFunction,Copper,L2,Inr*%
%TF.FilePolarity,Positive*%
%FSLAX46Y46*%
G04 Gerber Fmt 4.6, Leading zero omitted, Abs format (unit mm)*
G04 Created by KiCad (PCBNEW 9.0.6) date 2026-03-25 12:48:42*
%MOMM*%
%LPD*%
G01*
G04 APERTURE LIST*
%TA.AperFunction,ComponentPad*%
%ADD10C,1.700000*%
%TD*%
%TA.AperFunction,ComponentPad*%
%ADD11R,1.700000X1.700000*%
%TD*%
%TA.AperFunction,ComponentPad*%
%ADD12C,2.050000*%
%TD*%
%TA.AperFunction,ComponentPad*%
%ADD13C,2.250000*%
%TD*%
%TA.AperFunction,ViaPad*%
%ADD14C,0.600000*%
%TD*%
G04 APERTURE END LIST*
D10*
%TO.N,GND*%
%TO.C,J2*%
X134210000Y-85414000D03*
D11*
%TO.N,/mtjout1*%
X131670000Y-85414000D03*
%TD*%
%TO.N,GND*%
%TO.C,J3*%
X88650000Y-85114000D03*
D10*
%TO.N,/mtjin1*%
X86110000Y-85114000D03*
%TD*%
D12*
%TO.N,/mtjin1*%
%TO.C,SMA-in1*%
X88150000Y-98499000D03*
D13*
%TO.N,GND*%
X85610000Y-95959000D03*
X85610000Y-101039000D03*
X90690000Y-95959000D03*
X90690000Y-101039000D03*
%TD*%
D12*
%TO.N,/mtjout1*%
%TO.C,SMA-out1*%
X131895000Y-98454000D03*
D13*
%TO.N,GND*%
X129355000Y-95914000D03*
X129355000Y-100994000D03*
X134435000Y-95914000D03*
X134435000Y-100994000D03*
%TD*%
D14*
%TO.N,GND*%
X101610000Y-97414000D03*
X101610000Y-99514000D03*
X117681846Y-97301581D03*
X117710000Y-99414000D03*
X133110000Y-93214000D03*
X130710000Y-93314000D03*
X133110000Y-90614000D03*
X130710000Y-90514000D03*
X132810000Y-88114000D03*
X130710000Y-88114000D03*
X87110000Y-93014000D03*
X89310000Y-93014000D03*
X89610000Y-89914000D03*
X86710000Y-90014000D03*
X84810000Y-87814000D03*
X87810000Y-87814000D03*
X93010000Y-97664000D03*
X93010000Y-99414000D03*
X96760000Y-97664000D03*
X122010000Y-97664000D03*
X124510000Y-99164000D03*
X125760000Y-99164000D03*
X120760000Y-97664000D03*
X95510000Y-99414000D03*
X94260000Y-97664000D03*
X123260000Y-97664000D03*
X98010000Y-99414000D03*
X125760000Y-97664000D03*
X95510000Y-97664000D03*
X122010000Y-99164000D03*
X123260000Y-99164000D03*
X96760000Y-99414000D03*
X120760000Y-99164000D03*
X94260000Y-99414000D03*
X124510000Y-97664000D03*
X98010000Y-97664000D03*
%TD*%
%TA.AperFunction,Conductor*%
%TO.N,GND*%
G36*
X212542539Y-69520185D02*
G01*
X212588294Y-69572989D01*
X212599500Y-69624500D01*
X212599500Y-119075500D01*
X212579815Y-119142539D01*
X212527011Y-119188294D01*
X212475500Y-119199500D01*
X74874500Y-119199500D01*
X74807461Y-119179815D01*
X74761706Y-119127011D01*
X74750500Y-119075500D01*
X74750500Y-115301577D01*
X76949500Y-115301577D01*
X76949500Y-115498422D01*
X76980290Y-115692826D01*
X77041117Y-115880029D01*
X77130476Y-116055405D01*
X77246172Y-116214646D01*
X77385354Y-116353828D01*
X77544595Y-116469524D01*
X77627455Y-116511743D01*
X77719970Y-116558882D01*
X77719972Y-116558882D01*
X77719975Y-116558884D01*
X77820317Y-116591487D01*
X77907173Y-116619709D01*
X78101578Y-116650500D01*
X78101583Y-116650500D01*
X78298422Y-116650500D01*
X78492826Y-116619709D01*
X78680025Y-116558884D01*
X78855405Y-116469524D01*
X79014646Y-116353828D01*
X79153828Y-116214646D01*
X79269524Y-116055405D01*
X79358884Y-115880025D01*
X79419709Y-115692826D01*
X79450500Y-115498422D01*
X79450500Y-115301577D01*
X79436963Y-115216109D01*
X79434661Y-115201577D01*
X207549500Y-115201577D01*
X207549500Y-115398422D01*
X207580290Y-115592826D01*
X207641117Y-115780029D01*
X207692068Y-115880025D01*
X207730476Y-115955405D01*
X207846172Y-116114646D01*
X207985354Y-116253828D01*
X208144595Y-116369524D01*
X208227455Y-116411743D01*
X208319970Y-116458882D01*
X208319972Y-116458882D01*
X208319975Y-116458884D01*
X208420317Y-116491487D01*
X208507173Y-116519709D01*
X208701578Y-116550500D01*
X208701583Y-116550500D01*
X208898422Y-116550500D01*
X209092826Y-116519709D01*
X209280025Y-116458884D01*
X209455405Y-116369524D01*
X209614646Y-116253828D01*
X209753828Y-116114646D01*
X209869524Y-115955405D01*
X209958884Y-115780025D01*
X210019709Y-115592826D01*
X210034662Y-115498417D01*
X210050500Y-115398422D01*
X210050500Y-115201577D01*
X210019709Y-115007173D01*
X209958882Y-114819970D01*
X209869523Y-114644594D01*
X209753828Y-114485354D01*
X209614646Y-114346172D01*
X209455405Y-114230476D01*
X209280029Y-114141117D01*
X209092826Y-114080290D01*
X208898422Y-114049500D01*
X208898417Y-114049500D01*
X208701583Y-114049500D01*
X208701578Y-114049500D01*
X208507173Y-114080290D01*
X208319970Y-114141117D01*
X208144594Y-114230476D01*
X208053741Y-114296485D01*
X207985354Y-114346172D01*
X207985352Y-114346174D01*
X207985351Y-114346174D01*
X207846174Y-114485351D01*
X207846174Y-114485352D01*
X207846172Y-114485354D01*
X207796485Y-114553741D01*
X207730476Y-114644594D01*
X207641117Y-114819970D01*
X207580290Y-115007173D01*
X207549500Y-115201577D01*
X79434661Y-115201577D01*
X79419709Y-115107173D01*
X79387217Y-115007174D01*
X79358884Y-114919975D01*
X79358882Y-114919972D01*
X79358882Y-114919970D01*
X79269523Y-114744594D01*
X79153828Y-114585354D01*
X79014646Y-114446172D01*
X78855405Y-114330476D01*
X78680029Y-114241117D01*
X78492826Y-114180290D01*
X78298422Y-114149500D01*
X78298417Y-114149500D01*
X78101583Y-114149500D01*
X78101578Y-114149500D01*
X77907173Y-114180290D01*
X77719970Y-114241117D01*
X77544594Y-114330476D01*
X77453741Y-114396485D01*
X77385354Y-114446172D01*
X77385352Y-114446174D01*
X77385351Y-114446174D01*
X77246174Y-114585351D01*
X77246174Y-114585352D01*
X77246172Y-114585354D01*
X77203131Y-114644594D01*
X77130476Y-114744594D01*
X77041117Y-114919970D01*
X76980290Y-115107173D01*
X76949500Y-115301577D01*
X74750500Y-115301577D01*
X74750500Y-100911110D01*
X83985000Y-100911110D01*
X83985000Y-101166889D01*
X84025013Y-101419523D01*
X84104051Y-101662781D01*
X84104052Y-101662784D01*
X84220175Y-101890686D01*
X84297850Y-101997595D01*
X84297850Y-101997596D01*
X84855884Y-101439561D01*
X84856740Y-101441626D01*
X84949762Y-101580844D01*
X85068156Y-101699238D01*
X85207374Y-101792260D01*
X85209437Y-101793114D01*
X84651402Y-102351148D01*
X84758313Y-102428824D01*
X84986215Y-102544947D01*
X84986218Y-102544948D01*
X85229476Y-102623986D01*
X85482111Y-102664000D01*
X85737889Y-102664000D01*
X85990523Y-102623986D01*
X86233781Y-102544948D01*
X86233784Y-102544947D01*
X86461685Y-102428825D01*
X86568595Y-102351148D01*
X86568596Y-102351148D01*
X86010562Y-101793114D01*
X86012626Y-101792260D01*
X86151844Y-101699238D01*
X86270238Y-101580844D01*
X86363260Y-101441626D01*
X86364114Y-101439562D01*
X86922148Y-101997596D01*
X86922148Y-101997595D01*
X86999825Y-101890685D01*
X87115947Y-101662784D01*
X87115948Y-101662781D01*
X87194986Y-101419523D01*
X87235000Y-101166889D01*
X87235000Y-100911110D01*
X89065000Y-100911110D01*
X89065000Y-101166889D01*
X89105013Y-101419523D01*
X89184051Y-101662781D01*
X89184052Y-101662784D01*
X89300175Y-101890686D01*
X89377850Y-101997595D01*
X89377850Y-101997596D01*
X89935884Y-101439561D01*
X89936740Y-101441626D01*
X90029762Y-101580844D01*
X90148156Y-101699238D01*
X90287374Y-101792260D01*
X90289437Y-101793114D01*
X89731402Y-102351148D01*
X89838313Y-102428824D01*
X90066215Y-102544947D01*
X90066218Y-102544948D01*
X90309476Y-102623986D01*
X90562111Y-102664000D01*
X90817889Y-102664000D01*
X91070523Y-102623986D01*
X91313781Y-102544948D01*
X91313784Y-102544947D01*
X91541685Y-102428825D01*
X91648595Y-102351148D01*
X91648596Y-102351148D01*
X91644018Y-102346570D01*
X91090562Y-101793114D01*
X91092626Y-101792260D01*
X91231844Y-101699238D01*
X91350238Y-101580844D01*
X91443260Y-101441626D01*
X91444114Y-101439562D01*
X92002148Y-101997596D01*
X92002148Y-101997595D01*
X92079825Y-101890685D01*
X92195947Y-101662784D01*
X92195948Y-101662781D01*
X92274986Y-101419523D01*
X92315000Y-101166889D01*
X92315000Y-100911112D01*
X92310173Y-100880637D01*
X92310173Y-100880636D01*
X92307872Y-100866110D01*
X127730000Y-100866110D01*
X127730000Y-101121889D01*
X127770013Y-101374523D01*
X127849051Y-101617781D01*
X127849052Y-101617784D01*
X127965175Y-101845686D01*
X128042850Y-101952595D01*
X128042850Y-101952596D01*
X128600884Y-101394561D01*
X128601740Y-101396626D01*
X128694762Y-101535844D01*
X128813156Y-101654238D01*
X128952374Y-101747260D01*
X128954437Y-101748114D01*
X128396402Y-102306148D01*
X128503313Y-102383824D01*
X128731215Y-102499947D01*
X128731218Y-102499948D01*
X128974476Y-102578986D01*
X129227111Y-102619000D01*
X129482889Y-102619000D01*
X129735523Y-102578986D01*
X129978781Y-102499948D01*
X129978784Y-102499947D01*
X130206685Y-102383825D01*
X130313595Y-102306148D01*
X130313596Y-102306148D01*
X129755562Y-101748114D01*
X129757626Y-101747260D01*
X129896844Y-101654238D01*
X130015238Y-101535844D01*
X130108260Y-101396626D01*
X130109114Y-101394562D01*
X130667148Y-101952596D01*
X130667148Y-101952595D01*
X130744825Y-101845685D01*
X130860947Y-101617784D01*
X130860948Y-101617781D01*
X130939986Y-101374523D01*
X130980000Y-101121889D01*
X130980000Y-100866110D01*
X132810000Y-100866110D01*
X132810000Y-101121889D01*
X132850013Y-101374523D01*
X132929051Y-101617781D01*
X132929052Y-101617784D01*
X133045175Y-101845686D01*
X133122850Y-101952595D01*
X133122850Y-101952596D01*
X133680884Y-101394561D01*
X133681740Y-101396626D01*
X133774762Y-101535844D01*
X133893156Y-101654238D01*
X134032374Y-101747260D01*
X134034437Y-101748114D01*
X133476402Y-102306148D01*
X133583313Y-102383824D01*
X133811215Y-102499947D01*
X133811218Y-102499948D01*
X134054476Y-102578986D01*
X134307111Y-102619000D01*
X134562889Y-102619000D01*
X134815523Y-102578986D01*
X135058781Y-102499948D01*
X135058784Y-102499947D01*
X135286685Y-102383825D01*
X135393595Y-102306148D01*
X135393596Y-102306148D01*
X134835562Y-101748114D01*
X134837626Y-101747260D01*
X134976844Y-101654238D01*
X135095238Y-101535844D01*
X135188260Y-101396626D01*
X135189114Y-101394562D01*
X135747148Y-101952596D01*
X135747148Y-101952595D01*
X135824825Y-101845685D01*
X135940947Y-101617784D01*
X135940948Y-101617781D01*
X136019986Y-101374523D01*
X136060000Y-101121889D01*
X136060000Y-100866110D01*
X136019986Y-100613476D01*
X135940948Y-100370218D01*
X135940947Y-100370215D01*
X135824824Y-100142313D01*
X135747148Y-100035403D01*
X135747148Y-100035402D01*
X135189114Y-100593436D01*
X135188260Y-100591374D01*
X135095238Y-100452156D01*
X134976844Y-100333762D01*
X134837626Y-100240740D01*
X134835560Y-100239884D01*
X135393596Y-99681850D01*
X135286686Y-99604175D01*
X135058784Y-99488052D01*
X135058781Y-99488051D01*
X134815523Y-99409013D01*
X134562889Y-99369000D01*
X134307111Y-99369000D01*
X134054476Y-99409013D01*
X133811218Y-99488051D01*
X133811215Y-99488052D01*
X133583310Y-99604177D01*
X133476403Y-99681849D01*
X133476402Y-99681850D01*
X134034437Y-100239885D01*
X134032374Y-100240740D01*
X133893156Y-100333762D01*
X133774762Y-100452156D01*
X133681740Y-100591374D01*
X133680885Y-100593437D01*
X133122850Y-100035402D01*
X133122849Y-100035403D01*
X133045177Y-100142310D01*
X132929052Y-100370215D01*
X132929051Y-100370218D01*
X132850013Y-100613476D01*
X132810000Y-100866110D01*
X130980000Y-100866110D01*
X130939986Y-100613476D01*
X130860948Y-100370218D01*
X130860947Y-100370215D01*
X130744824Y-100142313D01*
X130667148Y-100035403D01*
X130667148Y-100035402D01*
X130109114Y-100593436D01*
X130108260Y-100591374D01*
X130015238Y-100452156D01*
X129896844Y-100333762D01*
X129757626Y-100240740D01*
X129755560Y-100239884D01*
X130313596Y-99681850D01*
X130206686Y-99604175D01*
X129978784Y-99488052D01*
X129978781Y-99488051D01*
X129735523Y-99409013D01*
X129482889Y-99369000D01*
X129227111Y-99369000D01*
X128974476Y-99409013D01*
X128731218Y-99488051D01*
X128731215Y-99488052D01*
X128503310Y-99604177D01*
X128396403Y-99681849D01*
X128396402Y-99681850D01*
X128954437Y-100239885D01*
X128952374Y-100240740D01*
X128813156Y-100333762D01*
X128694762Y-100452156D01*
X128601740Y-100591374D01*
X128600885Y-100593437D01*
X128042850Y-100035402D01*
X128042849Y-100035403D01*
X127965177Y-100142310D01*
X127849052Y-100370215D01*
X127849051Y-100370218D01*
X127770013Y-100613476D01*
X127730000Y-100866110D01*
X92307872Y-100866110D01*
X92274986Y-100658476D01*
X92195948Y-100415218D01*
X92195947Y-100415215D01*
X92079824Y-100187313D01*
X92002148Y-100080403D01*
X92002148Y-100080402D01*
X91444114Y-100638436D01*
X91443260Y-100636374D01*
X91350238Y-100497156D01*
X91231844Y-100378762D01*
X91092626Y-100285740D01*
X91090560Y-100284884D01*
X91648595Y-99726851D01*
X91648595Y-99726850D01*
X91541686Y-99649175D01*
X91313784Y-99533052D01*
X91313781Y-99533051D01*
X91070523Y-99454013D01*
X90817889Y-99414000D01*
X90562111Y-99414000D01*
X90309476Y-99454013D01*
X90066218Y-99533051D01*
X90066215Y-99533052D01*
X89838310Y-99649177D01*
X89731403Y-99726849D01*
X89731402Y-99726850D01*
X90289437Y-100284885D01*
X90287374Y-100285740D01*
X90148156Y-100378762D01*
X90029762Y-100497156D01*
X89936740Y-100636374D01*
X89935885Y-100638437D01*
X89377850Y-100080402D01*
X89377849Y-100080403D01*
X89300177Y-100187310D01*
X89184052Y-100415215D01*
X89184051Y-100415218D01*
X89105013Y-100658476D01*
X89065000Y-100911110D01*
X87235000Y-100911110D01*
X87194986Y-100658476D01*
X87115948Y-100415218D01*
X87115947Y-100415215D01*
X86999824Y-100187313D01*
X86922148Y-100080403D01*
X86922148Y-100080402D01*
X86364114Y-100638436D01*
X86363260Y-100636374D01*
X86270238Y-100497156D01*
X86151844Y-100378762D01*
X86012626Y-100285740D01*
X86010560Y-100284884D01*
X86568596Y-99726850D01*
X86461686Y-99649175D01*
X86233784Y-99533052D01*
X86233781Y-99533051D01*
X85990523Y-99454013D01*
X85737889Y-99414000D01*
X85482111Y-99414000D01*
X85229476Y-99454013D01*
X84986218Y-99533051D01*
X84986215Y-99533052D01*
X84758310Y-99649177D01*
X84651403Y-99726849D01*
X84651402Y-99726850D01*
X85209437Y-100284885D01*
X85207374Y-100285740D01*
X85068156Y-100378762D01*
X84949762Y-100497156D01*
X84856740Y-100636374D01*
X84855885Y-100638437D01*
X84297850Y-100080402D01*
X84297849Y-100080403D01*
X84220177Y-100187310D01*
X84104052Y-100415215D01*
X84104051Y-100415218D01*
X84025013Y-100658476D01*
X83985000Y-100911110D01*
X74750500Y-100911110D01*
X74750500Y-98402551D01*
X86924500Y-98402551D01*
X86924500Y-98595448D01*
X86954675Y-98785969D01*
X86954676Y-98785972D01*
X87014285Y-98969429D01*
X87101859Y-99141302D01*
X87215241Y-99297359D01*
X87351641Y-99433759D01*
X87507698Y-99547141D01*
X87679571Y-99634715D01*
X87863028Y-99694324D01*
X88053551Y-99724500D01*
X88053552Y-99724500D01*
X88246448Y-99724500D01*
X88246449Y-99724500D01*
X88436972Y-99694324D01*
X88620429Y-99634715D01*
X88792302Y-99547141D01*
X88948359Y-99433759D01*
X89084759Y-99297359D01*
X89198141Y-99141302D01*
X89285715Y-98969429D01*
X89345324Y-98785972D01*
X89375500Y-98595449D01*
X89375500Y-98402551D01*
X89368373Y-98357551D01*
X130669500Y-98357551D01*
X130669500Y-98550448D01*
X130699675Y-98740969D01*
X130699676Y-98740972D01*
X130759285Y-98924429D01*
X130846859Y-99096302D01*
X130960241Y-99252359D01*
X131096641Y-99388759D01*
X131252698Y-99502141D01*
X131424571Y-99589715D01*
X131608028Y-99649324D01*
X131798551Y-99679500D01*
X131798552Y-99679500D01*
X131991448Y-99679500D01*
X131991449Y-99679500D01*
X132181972Y-99649324D01*
X132365429Y-99589715D01*
X132537302Y-99502141D01*
X132693359Y-99388759D01*
X132829759Y-99252359D01*
X132943141Y-99096302D01*
X133030715Y-98924429D01*
X133090324Y-98740972D01*
X133120500Y-98550449D01*
X133120500Y-98357551D01*
X133090324Y-98167028D01*
X133030715Y-97983571D01*
X132943141Y-97811698D01*
X132829759Y-97655641D01*
X132693359Y-97519241D01*
X132537302Y-97405859D01*
X132365429Y-97318285D01*
X132181972Y-97258676D01*
X132181969Y-97258675D01*
X132035614Y-97235495D01*
X131991449Y-97228500D01*
X131798551Y-97228500D01*
X131762697Y-97234178D01*
X131608030Y-97258675D01*
X131424568Y-97318286D01*
X131252697Y-97405859D01*
X131171370Y-97464947D01*
X131096641Y-97519241D01*
X131096639Y-97519243D01*
X131096638Y-97519243D01*
X130960243Y-97655638D01*
X130960243Y-97655639D01*
X130960241Y-97655641D01*
X130927549Y-97700638D01*
X130846859Y-97811697D01*
X130759286Y-97983568D01*
X130699675Y-98167030D01*
X130669500Y-98357551D01*
X89368373Y-98357551D01*
X89345324Y-98212028D01*
X89285715Y-98028571D01*
X89198141Y-97856698D01*
X89084759Y-97700641D01*
X88948359Y-97564241D01*
X88792302Y-97450859D01*
X88620429Y-97363285D01*
X88437431Y-97303825D01*
X88436969Y-97303675D01*
X88290614Y-97280495D01*
X88246449Y-97273500D01*
X88053551Y-97273500D01*
X88017697Y-97279178D01*
X87863030Y-97303675D01*
X87679568Y-97363286D01*
X87507697Y-97450859D01*
X87441457Y-97498986D01*
X87351641Y-97564241D01*
X87351639Y-97564243D01*
X87351638Y-97564243D01*
X87215243Y-97700638D01*
X87215243Y-97700639D01*
X87215241Y-97700641D01*
X87166547Y-97767661D01*
X87101859Y-97856697D01*
X87014286Y-98028568D01*
X86954675Y-98212030D01*
X86924500Y-98402551D01*
X74750500Y-98402551D01*
X74750500Y-95831110D01*
X83985000Y-95831110D01*
X83985000Y-96086889D01*
X84025013Y-96339523D01*
X84104051Y-96582781D01*
X84104052Y-96582784D01*
X84220175Y-96810686D01*
X84297850Y-96917595D01*
X84297850Y-96917596D01*
X84855884Y-96359561D01*
X84856740Y-96361626D01*
X84949762Y-96500844D01*
X85068156Y-96619238D01*
X85207374Y-96712260D01*
X85209437Y-96713114D01*
X84651402Y-97271148D01*
X84758313Y-97348824D01*
X84986215Y-97464947D01*
X84986218Y-97464948D01*
X85229476Y-97543986D01*
X85482111Y-97584000D01*
X85737889Y-97584000D01*
X85990523Y-97543986D01*
X86233781Y-97464948D01*
X86233784Y-97464947D01*
X86461685Y-97348825D01*
X86568595Y-97271148D01*
X86568596Y-97271148D01*
X86010562Y-96713114D01*
X86012626Y-96712260D01*
X86151844Y-96619238D01*
X86270238Y-96500844D01*
X86363260Y-96361626D01*
X86364114Y-96359562D01*
X86922148Y-96917596D01*
X86922148Y-96917595D01*
X86999825Y-96810685D01*
X87115947Y-96582784D01*
X87115948Y-96582781D01*
X87194986Y-96339523D01*
X87235000Y-96086889D01*
X87235000Y-95831110D01*
X89065000Y-95831110D01*
X89065000Y-96086889D01*
X89105013Y-96339523D01*
X89184051Y-96582781D01*
X89184052Y-96582784D01*
X89300175Y-96810686D01*
X89377850Y-96917595D01*
X89377850Y-96917596D01*
X89935884Y-96359561D01*
X89936740Y-96361626D01*
X90029762Y-96500844D01*
X90148156Y-96619238D01*
X90287374Y-96712260D01*
X90289437Y-96713114D01*
X89731402Y-97271148D01*
X89838313Y-97348824D01*
X90066215Y-97464947D01*
X90066218Y-97464948D01*
X90309476Y-97543986D01*
X90562111Y-97584000D01*
X90817889Y-97584000D01*
X91070523Y-97543986D01*
X91313781Y-97464948D01*
X91313784Y-97464947D01*
X91541685Y-97348825D01*
X91648595Y-97271148D01*
X91648596Y-97271148D01*
X91644018Y-97266570D01*
X91090562Y-96713114D01*
X91092626Y-96712260D01*
X91231844Y-96619238D01*
X91350238Y-96500844D01*
X91443260Y-96361626D01*
X91444114Y-96359562D01*
X92002148Y-96917596D01*
X92002148Y-96917595D01*
X92079825Y-96810685D01*
X92195947Y-96582784D01*
X92195948Y-96582781D01*
X92274986Y-96339523D01*
X92315000Y-96086889D01*
X92315000Y-95831112D01*
X92310173Y-95800637D01*
X92310173Y-95800636D01*
X92307872Y-95786110D01*
X127730000Y-95786110D01*
X127730000Y-96041889D01*
X127770013Y-96294523D01*
X127849051Y-96537781D01*
X127849052Y-96537784D01*
X127965175Y-96765686D01*
X128042850Y-96872595D01*
X128042850Y-96872596D01*
X128600884Y-96314561D01*
X128601740Y-96316626D01*
X128694762Y-96455844D01*
X128813156Y-96574238D01*
X128952374Y-96667260D01*
X128954437Y-96668114D01*
X128396402Y-97226148D01*
X128503313Y-97303824D01*
X128731215Y-97419947D01*
X128731218Y-97419948D01*
X128974476Y-97498986D01*
X129227111Y-97539000D01*
X129482889Y-97539000D01*
X129735523Y-97498986D01*
X129978781Y-97419948D01*
X129978784Y-97419947D01*
X130206685Y-97303825D01*
X130313595Y-97226148D01*
X130313596Y-97226148D01*
X129755562Y-96668114D01*
X129757626Y-96667260D01*
X129896844Y-96574238D01*
X130015238Y-96455844D01*
X130108260Y-96316626D01*
X130109114Y-96314562D01*
X130667148Y-96872596D01*
X130667148Y-96872595D01*
X130744825Y-96765685D01*
X130860947Y-96537784D01*
X130860948Y-96537781D01*
X130939986Y-96294523D01*
X130980000Y-96041889D01*
X130980000Y-95786110D01*
X132810000Y-95786110D01*
X132810000Y-96041889D01*
X132850013Y-96294523D01*
X132929051Y-96537781D01*
X132929052Y-96537784D01*
X133045175Y-96765686D01*
X133122850Y-96872595D01*
X133122850Y-96872596D01*
X133680884Y-96314561D01*
X133681740Y-96316626D01*
X133774762Y-96455844D01*
X133893156Y-96574238D01*
X134032374Y-96667260D01*
X134034437Y-96668114D01*
X133476402Y-97226148D01*
X133583313Y-97303824D01*
X133811215Y-97419947D01*
X133811218Y-97419948D01*
X134054476Y-97498986D01*
X134307111Y-97539000D01*
X134562889Y-97539000D01*
X134815523Y-97498986D01*
X135058781Y-97419948D01*
X135058784Y-97419947D01*
X135286685Y-97303825D01*
X135393595Y-97226148D01*
X135393596Y-97226148D01*
X134835562Y-96668114D01*
X134837626Y-96667260D01*
X134976844Y-96574238D01*
X135095238Y-96455844D01*
X135188260Y-96316626D01*
X135189114Y-96314562D01*
X135747148Y-96872596D01*
X135747148Y-96872595D01*
X135824825Y-96765685D01*
X135940947Y-96537784D01*
X135940948Y-96537781D01*
X136019986Y-96294523D01*
X136060000Y-96041889D01*
X136060000Y-95786110D01*
X136019986Y-95533476D01*
X135940948Y-95290218D01*
X135940947Y-95290215D01*
X135824824Y-95062313D01*
X135747148Y-94955403D01*
X135747148Y-94955402D01*
X135189114Y-95513436D01*
X135188260Y-95511374D01*
X135095238Y-95372156D01*
X134976844Y-95253762D01*
X134837626Y-95160740D01*
X134835560Y-95159884D01*
X135393596Y-94601850D01*
X135286686Y-94524175D01*
X135058784Y-94408052D01*
X135058781Y-94408051D01*
X134815523Y-94329013D01*
X134562889Y-94289000D01*
X134307111Y-94289000D01*
X134054476Y-94329013D01*
X133811218Y-94408051D01*
X133811215Y-94408052D01*
X133583310Y-94524177D01*
X133476403Y-94601849D01*
X133476402Y-94601850D01*
X134034437Y-95159885D01*
X134032374Y-95160740D01*
X133893156Y-95253762D01*
X133774762Y-95372156D01*
X133681740Y-95511374D01*
X133680885Y-95513437D01*
X133122850Y-94955402D01*
X133122849Y-94955403D01*
X133045177Y-95062310D01*
X132929052Y-95290215D01*
X132929051Y-95290218D01*
X132850013Y-95533476D01*
X132810000Y-95786110D01*
X130980000Y-95786110D01*
X130939986Y-95533476D01*
X130860948Y-95290218D01*
X130860947Y-95290215D01*
X130744824Y-95062313D01*
X130667148Y-94955403D01*
X130667148Y-94955402D01*
X130109114Y-95513436D01*
X130108260Y-95511374D01*
X130015238Y-95372156D01*
X129896844Y-95253762D01*
X129757626Y-95160740D01*
X129755560Y-95159884D01*
X130313596Y-94601850D01*
X130206686Y-94524175D01*
X129978784Y-94408052D01*
X129978781Y-94408051D01*
X129735523Y-94329013D01*
X129482889Y-94289000D01*
X129227111Y-94289000D01*
X128974476Y-94329013D01*
X128731218Y-94408051D01*
X128731215Y-94408052D01*
X128503310Y-94524177D01*
X128396403Y-94601849D01*
X128396402Y-94601850D01*
X128954437Y-95159885D01*
X128952374Y-95160740D01*
X128813156Y-95253762D01*
X128694762Y-95372156D01*
X128601740Y-95511374D01*
X128600885Y-95513437D01*
X128042850Y-94955402D01*
X128042849Y-94955403D01*
X127965177Y-95062310D01*
X127849052Y-95290215D01*
X127849051Y-95290218D01*
X127770013Y-95533476D01*
X127730000Y-95786110D01*
X92307872Y-95786110D01*
X92274986Y-95578476D01*
X92195948Y-95335218D01*
X92195947Y-95335215D01*
X92079824Y-95107313D01*
X92002148Y-95000403D01*
X92002148Y-95000402D01*
X91444114Y-95558436D01*
X91443260Y-95556374D01*
X91350238Y-95417156D01*
X91231844Y-95298762D01*
X91092626Y-95205740D01*
X91090560Y-95204884D01*
X91648595Y-94646851D01*
X91648595Y-94646850D01*
X91541686Y-94569175D01*
X91313784Y-94453052D01*
X91313781Y-94453051D01*
X91070523Y-94374013D01*
X90817889Y-94334000D01*
X90562111Y-94334000D01*
X90309476Y-94374013D01*
X90066218Y-94453051D01*
X90066215Y-94453052D01*
X89838310Y-94569177D01*
X89731403Y-94646849D01*
X89731402Y-94646850D01*
X90289437Y-95204885D01*
X90287374Y-95205740D01*
X90148156Y-95298762D01*
X90029762Y-95417156D01*
X89936740Y-95556374D01*
X89935885Y-95558437D01*
X89377850Y-95000402D01*
X89377849Y-95000403D01*
X89300177Y-95107310D01*
X89184052Y-95335215D01*
X89184051Y-95335218D01*
X89105013Y-95578476D01*
X89065000Y-95831110D01*
X87235000Y-95831110D01*
X87194986Y-95578476D01*
X87115948Y-95335218D01*
X87115947Y-95335215D01*
X86999824Y-95107313D01*
X86922148Y-95000403D01*
X86922148Y-95000402D01*
X86364114Y-95558436D01*
X86363260Y-95556374D01*
X86270238Y-95417156D01*
X86151844Y-95298762D01*
X86012626Y-95205740D01*
X86010560Y-95204884D01*
X86568596Y-94646850D01*
X86461686Y-94569175D01*
X86233784Y-94453052D01*
X86233781Y-94453051D01*
X85990523Y-94374013D01*
X85737889Y-94334000D01*
X85482111Y-94334000D01*
X85229476Y-94374013D01*
X84986218Y-94453051D01*
X84986215Y-94453052D01*
X84758310Y-94569177D01*
X84651403Y-94646849D01*
X84651402Y-94646850D01*
X85209437Y-95204885D01*
X85207374Y-95205740D01*
X85068156Y-95298762D01*
X84949762Y-95417156D01*
X84856740Y-95556374D01*
X84855885Y-95558437D01*
X84297850Y-95000402D01*
X84297849Y-95000403D01*
X84220177Y-95107310D01*
X84104052Y-95335215D01*
X84104051Y-95335218D01*
X84025013Y-95578476D01*
X83985000Y-95831110D01*
X74750500Y-95831110D01*
X74750500Y-85010530D01*
X85059500Y-85010530D01*
X85059500Y-85217469D01*
X85099868Y-85420412D01*
X85099870Y-85420420D01*
X85179058Y-85611596D01*
X85294024Y-85783657D01*
X85440342Y-85929975D01*
X85440345Y-85929977D01*
X85612402Y-86044941D01*
X85803580Y-86124130D01*
X86006530Y-86164499D01*
X86006534Y-86164500D01*
X86006535Y-86164500D01*
X86213466Y-86164500D01*
X86213467Y-86164499D01*
X86416420Y-86124130D01*
X86607598Y-86044941D01*
X86779655Y-85929977D01*
X86925977Y-85783655D01*
X87040941Y-85611598D01*
X87061439Y-85562112D01*
X87105279Y-85507708D01*
X87171573Y-85485643D01*
X87239273Y-85502922D01*
X87286884Y-85554059D01*
X87300000Y-85609564D01*
X87300000Y-86011844D01*
X87306401Y-86071372D01*
X87306403Y-86071379D01*
X87356645Y-86206086D01*
X87356649Y-86206093D01*
X87442809Y-86321187D01*
X87442812Y-86321190D01*
X87557906Y-86407350D01*
X87557913Y-86407354D01*
X87692620Y-86457596D01*
X87692627Y-86457598D01*
X87752155Y-86463999D01*
X87752172Y-86464000D01*
X88400000Y-86464000D01*
X88400000Y-85547012D01*
X88457007Y-85579925D01*
X88584174Y-85614000D01*
X88715826Y-85614000D01*
X88842993Y-85579925D01*
X88900000Y-85547012D01*
X88900000Y-86464000D01*
X89547828Y-86464000D01*
X89547844Y-86463999D01*
X89607372Y-86457598D01*
X89607379Y-86457596D01*
X89742086Y-86407354D01*
X89742093Y-86407350D01*
X89857187Y-86321190D01*
X89857190Y-86321187D01*
X89943350Y-86206093D01*
X89943354Y-86206086D01*
X89993596Y-86071379D01*
X89993598Y-86071372D01*
X89999999Y-86011844D01*
X90000000Y-86011827D01*
X90000000Y-85364000D01*
X89083012Y-85364000D01*
X89115925Y-85306993D01*
X89150000Y-85179826D01*
X89150000Y-85048174D01*
X89115925Y-84921007D01*
X89083012Y-84864000D01*
X90000000Y-84864000D01*
X90000000Y-84544247D01*
X130619500Y-84544247D01*
X130619500Y-86283752D01*
X130631131Y-86342229D01*
X130631132Y-86342230D01*
X130675447Y-86408552D01*
X130741769Y-86452867D01*
X130741770Y-86452868D01*
X130800247Y-86464499D01*
X130800250Y-86464500D01*
X130800252Y-86464500D01*
X132539750Y-86464500D01*
X132539751Y-86464499D01*
X132554568Y-86461552D01*
X132598229Y-86452868D01*
X132598229Y-86452867D01*
X132598231Y-86452867D01*
X132664552Y-86408552D01*
X132708867Y-86342231D01*
X132708867Y-86342229D01*
X132708868Y-86342229D01*
X132720499Y-86283752D01*
X132720500Y-86283750D01*
X132720500Y-85980048D01*
X132740185Y-85913009D01*
X132792989Y-85867254D01*
X132862147Y-85857310D01*
X132925703Y-85886335D01*
X132955938Y-85928264D01*
X132956694Y-85927879D01*
X133055375Y-86121550D01*
X133094728Y-86175716D01*
X133727037Y-85543408D01*
X133744075Y-85606993D01*
X133809901Y-85721007D01*
X133902993Y-85814099D01*
X134017007Y-85879925D01*
X134080590Y-85896962D01*
X133448282Y-86529269D01*
X133448282Y-86529270D01*
X133502449Y-86568624D01*
X133691782Y-86665095D01*
X133893870Y-86730757D01*
X134103754Y-86764000D01*
X134316246Y-86764000D01*
X134526127Y-86730757D01*
X134526130Y-86730757D01*
X134728217Y-86665095D01*
X134917554Y-86568622D01*
X134971716Y-86529270D01*
X134971717Y-86529270D01*
X134339408Y-85896962D01*
X134402993Y-85879925D01*
X134517007Y-85814099D01*
X134610099Y-85721007D01*
X134675925Y-85606993D01*
X134692962Y-85543409D01*
X135325270Y-86175717D01*
X135325270Y-86175716D01*
X135364622Y-86121554D01*
X135461095Y-85932217D01*
X135526757Y-85730130D01*
X135526757Y-85730127D01*
X135560000Y-85520246D01*
X135560000Y-85307753D01*
X135526757Y-85097872D01*
X135526757Y-85097869D01*
X135461095Y-84895782D01*
X135364624Y-84706449D01*
X135325270Y-84652282D01*
X135325269Y-84652282D01*
X134692962Y-85284590D01*
X134675925Y-85221007D01*
X134610099Y-85106993D01*
X134517007Y-85013901D01*
X134402993Y-84948075D01*
X134339409Y-84931037D01*
X134971716Y-84298728D01*
X134917550Y-84259375D01*
X134728217Y-84162904D01*
X134526129Y-84097242D01*
X134316246Y-84064000D01*
X134103754Y-84064000D01*
X133893872Y-84097242D01*
X133893869Y-84097242D01*
X133691782Y-84162904D01*
X133502439Y-84259380D01*
X133448282Y-84298727D01*
X133448282Y-84298728D01*
X134080591Y-84931037D01*
X134017007Y-84948075D01*
X133902993Y-85013901D01*
X133809901Y-85106993D01*
X133744075Y-85221007D01*
X133727037Y-85284591D01*
X133094728Y-84652282D01*
X133094727Y-84652282D01*
X133055380Y-84706439D01*
X132956694Y-84900121D01*
X132955678Y-84899603D01*
X132915212Y-84949813D01*
X132848916Y-84971872D01*
X132781218Y-84954588D01*
X132733612Y-84903447D01*
X132720500Y-84847951D01*
X132720500Y-84544249D01*
X132720499Y-84544247D01*
X132708868Y-84485770D01*
X132708867Y-84485769D01*
X132664552Y-84419447D01*
X132598230Y-84375132D01*
X132598229Y-84375131D01*
X132539752Y-84363500D01*
X132539748Y-84363500D01*
X130800252Y-84363500D01*
X130800247Y-84363500D01*
X130741770Y-84375131D01*
X130741769Y-84375132D01*
X130675447Y-84419447D01*
X130631132Y-84485769D01*
X130631131Y-84485770D01*
X130619500Y-84544247D01*
X90000000Y-84544247D01*
X90000000Y-84216172D01*
X89999999Y-84216155D01*
X89993598Y-84156627D01*
X89993596Y-84156620D01*
X89943354Y-84021913D01*
X89943350Y-84021906D01*
X89857190Y-83906812D01*
X89857187Y-83906809D01*
X89742093Y-83820649D01*
X89742086Y-83820645D01*
X89607379Y-83770403D01*
X89607372Y-83770401D01*
X89547844Y-83764000D01*
X88900000Y-83764000D01*
X88900000Y-84680988D01*
X88842993Y-84648075D01*
X88715826Y-84614000D01*
X88584174Y-84614000D01*
X88457007Y-84648075D01*
X88400000Y-84680988D01*
X88400000Y-83764000D01*
X87752155Y-83764000D01*
X87692627Y-83770401D01*
X87692620Y-83770403D01*
X87557913Y-83820645D01*
X87557906Y-83820649D01*
X87442812Y-83906809D01*
X87442809Y-83906812D01*
X87356649Y-84021906D01*
X87356645Y-84021913D01*
X87306403Y-84156620D01*
X87306401Y-84156627D01*
X87300000Y-84216155D01*
X87300000Y-84618435D01*
X87280315Y-84685474D01*
X87227511Y-84731229D01*
X87158353Y-84741173D01*
X87094797Y-84712148D01*
X87061439Y-84665888D01*
X87040941Y-84616403D01*
X87040941Y-84616402D01*
X86925977Y-84444345D01*
X86925975Y-84444342D01*
X86779657Y-84298024D01*
X86657130Y-84216155D01*
X86607598Y-84183059D01*
X86416420Y-84103870D01*
X86416412Y-84103868D01*
X86213469Y-84063500D01*
X86213465Y-84063500D01*
X86006535Y-84063500D01*
X86006530Y-84063500D01*
X85803587Y-84103868D01*
X85803579Y-84103870D01*
X85612403Y-84183058D01*
X85440342Y-84298024D01*
X85294024Y-84444342D01*
X85179058Y-84616403D01*
X85099870Y-84807579D01*
X85099868Y-84807587D01*
X85059500Y-85010530D01*
X74750500Y-85010530D01*
X74750500Y-73501577D01*
X76949500Y-73501577D01*
X76949500Y-73698422D01*
X76980290Y-73892826D01*
X77041117Y-74080029D01*
X77109708Y-74214646D01*
X77130476Y-74255405D01*
X77246172Y-74414646D01*
X77385354Y-74553828D01*
X77544595Y-74669524D01*
X77627455Y-74711743D01*
X77719970Y-74758882D01*
X77719972Y-74758882D01*
X77719975Y-74758884D01*
X77820317Y-74791487D01*
X77907173Y-74819709D01*
X78101578Y-74850500D01*
X78101583Y-74850500D01*
X78298422Y-74850500D01*
X78492826Y-74819709D01*
X78680025Y-74758884D01*
X78855405Y-74669524D01*
X79014646Y-74553828D01*
X79153828Y-74414646D01*
X79269524Y-74255405D01*
X79358884Y-74080025D01*
X79419709Y-73892826D01*
X79421736Y-73880029D01*
X79450500Y-73698422D01*
X79450500Y-73501577D01*
X79421124Y-73316109D01*
X79419709Y-73307174D01*
X79417890Y-73301577D01*
X208149500Y-73301577D01*
X208149500Y-73498422D01*
X208180290Y-73692826D01*
X208241117Y-73880029D01*
X208330476Y-74055405D01*
X208446172Y-74214646D01*
X208585354Y-74353828D01*
X208744595Y-74469524D01*
X208827455Y-74511743D01*
X208919970Y-74558882D01*
X208919972Y-74558882D01*
X208919975Y-74558884D01*
X209020317Y-74591487D01*
X209107173Y-74619709D01*
X209301578Y-74650500D01*
X209301583Y-74650500D01*
X209498422Y-74650500D01*
X209692826Y-74619709D01*
X209880025Y-74558884D01*
X210055405Y-74469524D01*
X210214646Y-74353828D01*
X210353828Y-74214646D01*
X210469524Y-74055405D01*
X210558884Y-73880025D01*
X210619709Y-73692826D01*
X210650000Y-73501577D01*
X210650500Y-73498422D01*
X210650500Y-73301577D01*
X210619709Y-73107173D01*
X210591487Y-73020317D01*
X210558884Y-72919975D01*
X210558882Y-72919972D01*
X210558882Y-72919970D01*
X210511743Y-72827455D01*
X210469524Y-72744595D01*
X210353828Y-72585354D01*
X210214646Y-72446172D01*
X210055405Y-72330476D01*
X209880029Y-72241117D01*
X209692826Y-72180290D01*
X209498422Y-72149500D01*
X209498417Y-72149500D01*
X209301583Y-72149500D01*
X209301578Y-72149500D01*
X209107173Y-72180290D01*
X208919970Y-72241117D01*
X208744594Y-72330476D01*
X208676032Y-72380290D01*
X208585354Y-72446172D01*
X208585352Y-72446174D01*
X208585351Y-72446174D01*
X208446174Y-72585351D01*
X208446174Y-72585352D01*
X208446172Y-72585354D01*
X208401985Y-72646172D01*
X208330476Y-72744594D01*
X208241117Y-72919970D01*
X208180290Y-73107173D01*
X208149500Y-73301577D01*
X79417890Y-73301577D01*
X79358884Y-73119975D01*
X79358882Y-73119972D01*
X79358882Y-73119970D01*
X79269523Y-72944594D01*
X79251636Y-72919975D01*
X79153828Y-72785354D01*
X79014646Y-72646172D01*
X78855405Y-72530476D01*
X78680029Y-72441117D01*
X78492826Y-72380290D01*
X78298422Y-72349500D01*
X78298417Y-72349500D01*
X78101583Y-72349500D01*
X78101578Y-72349500D01*
X77907173Y-72380290D01*
X77719970Y-72441117D01*
X77544594Y-72530476D01*
X77469066Y-72585351D01*
X77385354Y-72646172D01*
X77385352Y-72646174D01*
X77385351Y-72646174D01*
X77246174Y-72785351D01*
X77246174Y-72785352D01*
X77246172Y-72785354D01*
X77196485Y-72853741D01*
X77130476Y-72944594D01*
X77041117Y-73119970D01*
X76980290Y-73307173D01*
X76949500Y-73501577D01*
X74750500Y-73501577D01*
X74750500Y-69624500D01*
X74770185Y-69557461D01*
X74822989Y-69511706D01*
X74874500Y-69500500D01*
X212475500Y-69500500D01*
X212542539Y-69520185D01*
G37*
%TD.AperFunction*%
%TD*%
M02*
