%TF.GenerationSoftware,KiCad,Pcbnew,9.0.6*%
%TF.CreationDate,2026-03-25T12:48:42-04:00*%
%TF.ProjectId,MTJ_chipholder,4d544a5f-6368-4697-9068-6f6c6465722e,rev?*%
%TF.SameCoordinates,Original*%
%TF.FileFunction,Legend,Top*%
%TF.FilePolarity,Positive*%
%FSLAX46Y46*%
G04 Gerber Fmt 4.6, Leading zero omitted, Abs format (unit mm)*
G04 Created by KiCad (PCBNEW 9.0.6) date 2026-03-25 12:48:42*
%MOMM*%
%LPD*%
G01*
G04 APERTURE LIST*
%ADD10C,0.187500*%
%ADD11C,0.150000*%
%ADD12C,0.120000*%
%ADD13C,0.152400*%
G04 APERTURE END LIST*
D10*
X175961450Y-111538037D02*
X175961450Y-110538037D01*
X175961450Y-110538037D02*
X176294783Y-111252322D01*
X176294783Y-111252322D02*
X176628116Y-110538037D01*
X176628116Y-110538037D02*
X176628116Y-111538037D01*
X176961450Y-110538037D02*
X177532878Y-110538037D01*
X177247164Y-111538037D02*
X177247164Y-110538037D01*
X178151926Y-110538037D02*
X178151926Y-111252322D01*
X178151926Y-111252322D02*
X178104307Y-111395179D01*
X178104307Y-111395179D02*
X178009069Y-111490418D01*
X178009069Y-111490418D02*
X177866212Y-111538037D01*
X177866212Y-111538037D02*
X177770974Y-111538037D01*
X179818593Y-111490418D02*
X179723355Y-111538037D01*
X179723355Y-111538037D02*
X179532879Y-111538037D01*
X179532879Y-111538037D02*
X179437641Y-111490418D01*
X179437641Y-111490418D02*
X179390022Y-111442798D01*
X179390022Y-111442798D02*
X179342403Y-111347560D01*
X179342403Y-111347560D02*
X179342403Y-111061846D01*
X179342403Y-111061846D02*
X179390022Y-110966608D01*
X179390022Y-110966608D02*
X179437641Y-110918989D01*
X179437641Y-110918989D02*
X179532879Y-110871370D01*
X179532879Y-110871370D02*
X179723355Y-110871370D01*
X179723355Y-110871370D02*
X179818593Y-110918989D01*
X180247165Y-111538037D02*
X180247165Y-110538037D01*
X180675736Y-111538037D02*
X180675736Y-111014227D01*
X180675736Y-111014227D02*
X180628117Y-110918989D01*
X180628117Y-110918989D02*
X180532879Y-110871370D01*
X180532879Y-110871370D02*
X180390022Y-110871370D01*
X180390022Y-110871370D02*
X180294784Y-110918989D01*
X180294784Y-110918989D02*
X180247165Y-110966608D01*
X181151927Y-111538037D02*
X181151927Y-110871370D01*
X181151927Y-110538037D02*
X181104308Y-110585656D01*
X181104308Y-110585656D02*
X181151927Y-110633275D01*
X181151927Y-110633275D02*
X181199546Y-110585656D01*
X181199546Y-110585656D02*
X181151927Y-110538037D01*
X181151927Y-110538037D02*
X181151927Y-110633275D01*
X181628117Y-110871370D02*
X181628117Y-111871370D01*
X181628117Y-110918989D02*
X181723355Y-110871370D01*
X181723355Y-110871370D02*
X181913831Y-110871370D01*
X181913831Y-110871370D02*
X182009069Y-110918989D01*
X182009069Y-110918989D02*
X182056688Y-110966608D01*
X182056688Y-110966608D02*
X182104307Y-111061846D01*
X182104307Y-111061846D02*
X182104307Y-111347560D01*
X182104307Y-111347560D02*
X182056688Y-111442798D01*
X182056688Y-111442798D02*
X182009069Y-111490418D01*
X182009069Y-111490418D02*
X181913831Y-111538037D01*
X181913831Y-111538037D02*
X181723355Y-111538037D01*
X181723355Y-111538037D02*
X181628117Y-111490418D01*
X183294784Y-111538037D02*
X183294784Y-110538037D01*
X183723355Y-111538037D02*
X183723355Y-111014227D01*
X183723355Y-111014227D02*
X183675736Y-110918989D01*
X183675736Y-110918989D02*
X183580498Y-110871370D01*
X183580498Y-110871370D02*
X183437641Y-110871370D01*
X183437641Y-110871370D02*
X183342403Y-110918989D01*
X183342403Y-110918989D02*
X183294784Y-110966608D01*
X184342403Y-111538037D02*
X184247165Y-111490418D01*
X184247165Y-111490418D02*
X184199546Y-111442798D01*
X184199546Y-111442798D02*
X184151927Y-111347560D01*
X184151927Y-111347560D02*
X184151927Y-111061846D01*
X184151927Y-111061846D02*
X184199546Y-110966608D01*
X184199546Y-110966608D02*
X184247165Y-110918989D01*
X184247165Y-110918989D02*
X184342403Y-110871370D01*
X184342403Y-110871370D02*
X184485260Y-110871370D01*
X184485260Y-110871370D02*
X184580498Y-110918989D01*
X184580498Y-110918989D02*
X184628117Y-110966608D01*
X184628117Y-110966608D02*
X184675736Y-111061846D01*
X184675736Y-111061846D02*
X184675736Y-111347560D01*
X184675736Y-111347560D02*
X184628117Y-111442798D01*
X184628117Y-111442798D02*
X184580498Y-111490418D01*
X184580498Y-111490418D02*
X184485260Y-111538037D01*
X184485260Y-111538037D02*
X184342403Y-111538037D01*
X185247165Y-111538037D02*
X185151927Y-111490418D01*
X185151927Y-111490418D02*
X185104308Y-111395179D01*
X185104308Y-111395179D02*
X185104308Y-110538037D01*
X186056689Y-111538037D02*
X186056689Y-110538037D01*
X186056689Y-111490418D02*
X185961451Y-111538037D01*
X185961451Y-111538037D02*
X185770975Y-111538037D01*
X185770975Y-111538037D02*
X185675737Y-111490418D01*
X185675737Y-111490418D02*
X185628118Y-111442798D01*
X185628118Y-111442798D02*
X185580499Y-111347560D01*
X185580499Y-111347560D02*
X185580499Y-111061846D01*
X185580499Y-111061846D02*
X185628118Y-110966608D01*
X185628118Y-110966608D02*
X185675737Y-110918989D01*
X185675737Y-110918989D02*
X185770975Y-110871370D01*
X185770975Y-110871370D02*
X185961451Y-110871370D01*
X185961451Y-110871370D02*
X186056689Y-110918989D01*
X186913832Y-111490418D02*
X186818594Y-111538037D01*
X186818594Y-111538037D02*
X186628118Y-111538037D01*
X186628118Y-111538037D02*
X186532880Y-111490418D01*
X186532880Y-111490418D02*
X186485261Y-111395179D01*
X186485261Y-111395179D02*
X186485261Y-111014227D01*
X186485261Y-111014227D02*
X186532880Y-110918989D01*
X186532880Y-110918989D02*
X186628118Y-110871370D01*
X186628118Y-110871370D02*
X186818594Y-110871370D01*
X186818594Y-110871370D02*
X186913832Y-110918989D01*
X186913832Y-110918989D02*
X186961451Y-111014227D01*
X186961451Y-111014227D02*
X186961451Y-111109465D01*
X186961451Y-111109465D02*
X186485261Y-111204703D01*
X187390023Y-111538037D02*
X187390023Y-110871370D01*
X187390023Y-111061846D02*
X187437642Y-110966608D01*
X187437642Y-110966608D02*
X187485261Y-110918989D01*
X187485261Y-110918989D02*
X187580499Y-110871370D01*
X187580499Y-110871370D02*
X187675737Y-110871370D01*
X175866212Y-112481314D02*
X176104307Y-113147981D01*
X176104307Y-113147981D02*
X176342402Y-112481314D01*
X177247164Y-113147981D02*
X176675736Y-113147981D01*
X176961450Y-113147981D02*
X176961450Y-112147981D01*
X176961450Y-112147981D02*
X176866212Y-112290838D01*
X176866212Y-112290838D02*
X176770974Y-112386076D01*
X176770974Y-112386076D02*
X176675736Y-112433695D01*
X177675736Y-113052742D02*
X177723355Y-113100362D01*
X177723355Y-113100362D02*
X177675736Y-113147981D01*
X177675736Y-113147981D02*
X177628117Y-113100362D01*
X177628117Y-113100362D02*
X177675736Y-113052742D01*
X177675736Y-113052742D02*
X177675736Y-113147981D01*
X178342402Y-112147981D02*
X178437640Y-112147981D01*
X178437640Y-112147981D02*
X178532878Y-112195600D01*
X178532878Y-112195600D02*
X178580497Y-112243219D01*
X178580497Y-112243219D02*
X178628116Y-112338457D01*
X178628116Y-112338457D02*
X178675735Y-112528933D01*
X178675735Y-112528933D02*
X178675735Y-112767028D01*
X178675735Y-112767028D02*
X178628116Y-112957504D01*
X178628116Y-112957504D02*
X178580497Y-113052742D01*
X178580497Y-113052742D02*
X178532878Y-113100362D01*
X178532878Y-113100362D02*
X178437640Y-113147981D01*
X178437640Y-113147981D02*
X178342402Y-113147981D01*
X178342402Y-113147981D02*
X178247164Y-113100362D01*
X178247164Y-113100362D02*
X178199545Y-113052742D01*
X178199545Y-113052742D02*
X178151926Y-112957504D01*
X178151926Y-112957504D02*
X178104307Y-112767028D01*
X178104307Y-112767028D02*
X178104307Y-112528933D01*
X178104307Y-112528933D02*
X178151926Y-112338457D01*
X178151926Y-112338457D02*
X178199545Y-112243219D01*
X178199545Y-112243219D02*
X178247164Y-112195600D01*
X178247164Y-112195600D02*
X178342402Y-112147981D01*
X175818593Y-113757925D02*
X176390021Y-113757925D01*
X176104307Y-114757925D02*
X176104307Y-113757925D01*
X176723355Y-114757925D02*
X176723355Y-114091258D01*
X176723355Y-114281734D02*
X176770974Y-114186496D01*
X176770974Y-114186496D02*
X176818593Y-114138877D01*
X176818593Y-114138877D02*
X176913831Y-114091258D01*
X176913831Y-114091258D02*
X177009069Y-114091258D01*
X177485260Y-114757925D02*
X177390022Y-114710306D01*
X177390022Y-114710306D02*
X177342403Y-114662686D01*
X177342403Y-114662686D02*
X177294784Y-114567448D01*
X177294784Y-114567448D02*
X177294784Y-114281734D01*
X177294784Y-114281734D02*
X177342403Y-114186496D01*
X177342403Y-114186496D02*
X177390022Y-114138877D01*
X177390022Y-114138877D02*
X177485260Y-114091258D01*
X177485260Y-114091258D02*
X177628117Y-114091258D01*
X177628117Y-114091258D02*
X177723355Y-114138877D01*
X177723355Y-114138877D02*
X177770974Y-114186496D01*
X177770974Y-114186496D02*
X177818593Y-114281734D01*
X177818593Y-114281734D02*
X177818593Y-114567448D01*
X177818593Y-114567448D02*
X177770974Y-114662686D01*
X177770974Y-114662686D02*
X177723355Y-114710306D01*
X177723355Y-114710306D02*
X177628117Y-114757925D01*
X177628117Y-114757925D02*
X177485260Y-114757925D01*
X178151927Y-114091258D02*
X178390022Y-114757925D01*
X178628117Y-114091258D02*
X178390022Y-114757925D01*
X178390022Y-114757925D02*
X178294784Y-114996020D01*
X178294784Y-114996020D02*
X178247165Y-115043639D01*
X178247165Y-115043639D02*
X178151927Y-115091258D01*
X180342403Y-114662686D02*
X180294784Y-114710306D01*
X180294784Y-114710306D02*
X180151927Y-114757925D01*
X180151927Y-114757925D02*
X180056689Y-114757925D01*
X180056689Y-114757925D02*
X179913832Y-114710306D01*
X179913832Y-114710306D02*
X179818594Y-114615067D01*
X179818594Y-114615067D02*
X179770975Y-114519829D01*
X179770975Y-114519829D02*
X179723356Y-114329353D01*
X179723356Y-114329353D02*
X179723356Y-114186496D01*
X179723356Y-114186496D02*
X179770975Y-113996020D01*
X179770975Y-113996020D02*
X179818594Y-113900782D01*
X179818594Y-113900782D02*
X179913832Y-113805544D01*
X179913832Y-113805544D02*
X180056689Y-113757925D01*
X180056689Y-113757925D02*
X180151927Y-113757925D01*
X180151927Y-113757925D02*
X180294784Y-113805544D01*
X180294784Y-113805544D02*
X180342403Y-113853163D01*
X180770975Y-114757925D02*
X180770975Y-114091258D01*
X180770975Y-114281734D02*
X180818594Y-114186496D01*
X180818594Y-114186496D02*
X180866213Y-114138877D01*
X180866213Y-114138877D02*
X180961451Y-114091258D01*
X180961451Y-114091258D02*
X181056689Y-114091258D01*
X181390023Y-114757925D02*
X181390023Y-114091258D01*
X181390023Y-113757925D02*
X181342404Y-113805544D01*
X181342404Y-113805544D02*
X181390023Y-113853163D01*
X181390023Y-113853163D02*
X181437642Y-113805544D01*
X181437642Y-113805544D02*
X181390023Y-113757925D01*
X181390023Y-113757925D02*
X181390023Y-113853163D01*
X181818594Y-114710306D02*
X181913832Y-114757925D01*
X181913832Y-114757925D02*
X182104308Y-114757925D01*
X182104308Y-114757925D02*
X182199546Y-114710306D01*
X182199546Y-114710306D02*
X182247165Y-114615067D01*
X182247165Y-114615067D02*
X182247165Y-114567448D01*
X182247165Y-114567448D02*
X182199546Y-114472210D01*
X182199546Y-114472210D02*
X182104308Y-114424591D01*
X182104308Y-114424591D02*
X181961451Y-114424591D01*
X181961451Y-114424591D02*
X181866213Y-114376972D01*
X181866213Y-114376972D02*
X181818594Y-114281734D01*
X181818594Y-114281734D02*
X181818594Y-114234115D01*
X181818594Y-114234115D02*
X181866213Y-114138877D01*
X181866213Y-114138877D02*
X181961451Y-114091258D01*
X181961451Y-114091258D02*
X182104308Y-114091258D01*
X182104308Y-114091258D02*
X182199546Y-114138877D01*
X182628118Y-114710306D02*
X182723356Y-114757925D01*
X182723356Y-114757925D02*
X182913832Y-114757925D01*
X182913832Y-114757925D02*
X183009070Y-114710306D01*
X183009070Y-114710306D02*
X183056689Y-114615067D01*
X183056689Y-114615067D02*
X183056689Y-114567448D01*
X183056689Y-114567448D02*
X183009070Y-114472210D01*
X183009070Y-114472210D02*
X182913832Y-114424591D01*
X182913832Y-114424591D02*
X182770975Y-114424591D01*
X182770975Y-114424591D02*
X182675737Y-114376972D01*
X182675737Y-114376972D02*
X182628118Y-114281734D01*
X182628118Y-114281734D02*
X182628118Y-114234115D01*
X182628118Y-114234115D02*
X182675737Y-114138877D01*
X182675737Y-114138877D02*
X182770975Y-114091258D01*
X182770975Y-114091258D02*
X182913832Y-114091258D01*
X182913832Y-114091258D02*
X183009070Y-114138877D01*
X184675737Y-114757925D02*
X184675737Y-114234115D01*
X184675737Y-114234115D02*
X184628118Y-114138877D01*
X184628118Y-114138877D02*
X184532880Y-114091258D01*
X184532880Y-114091258D02*
X184342404Y-114091258D01*
X184342404Y-114091258D02*
X184247166Y-114138877D01*
X184675737Y-114710306D02*
X184580499Y-114757925D01*
X184580499Y-114757925D02*
X184342404Y-114757925D01*
X184342404Y-114757925D02*
X184247166Y-114710306D01*
X184247166Y-114710306D02*
X184199547Y-114615067D01*
X184199547Y-114615067D02*
X184199547Y-114519829D01*
X184199547Y-114519829D02*
X184247166Y-114424591D01*
X184247166Y-114424591D02*
X184342404Y-114376972D01*
X184342404Y-114376972D02*
X184580499Y-114376972D01*
X184580499Y-114376972D02*
X184675737Y-114329353D01*
X185151928Y-114091258D02*
X185151928Y-114757925D01*
X185151928Y-114186496D02*
X185199547Y-114138877D01*
X185199547Y-114138877D02*
X185294785Y-114091258D01*
X185294785Y-114091258D02*
X185437642Y-114091258D01*
X185437642Y-114091258D02*
X185532880Y-114138877D01*
X185532880Y-114138877D02*
X185580499Y-114234115D01*
X185580499Y-114234115D02*
X185580499Y-114757925D01*
X186485261Y-114757925D02*
X186485261Y-113757925D01*
X186485261Y-114710306D02*
X186390023Y-114757925D01*
X186390023Y-114757925D02*
X186199547Y-114757925D01*
X186199547Y-114757925D02*
X186104309Y-114710306D01*
X186104309Y-114710306D02*
X186056690Y-114662686D01*
X186056690Y-114662686D02*
X186009071Y-114567448D01*
X186009071Y-114567448D02*
X186009071Y-114281734D01*
X186009071Y-114281734D02*
X186056690Y-114186496D01*
X186056690Y-114186496D02*
X186104309Y-114138877D01*
X186104309Y-114138877D02*
X186199547Y-114091258D01*
X186199547Y-114091258D02*
X186390023Y-114091258D01*
X186390023Y-114091258D02*
X186485261Y-114138877D01*
X187675738Y-114472210D02*
X188151928Y-114472210D01*
X187580500Y-114757925D02*
X187913833Y-113757925D01*
X187913833Y-113757925D02*
X188247166Y-114757925D01*
X188580500Y-114091258D02*
X188580500Y-114757925D01*
X188580500Y-114186496D02*
X188628119Y-114138877D01*
X188628119Y-114138877D02*
X188723357Y-114091258D01*
X188723357Y-114091258D02*
X188866214Y-114091258D01*
X188866214Y-114091258D02*
X188961452Y-114138877D01*
X188961452Y-114138877D02*
X189009071Y-114234115D01*
X189009071Y-114234115D02*
X189009071Y-114757925D01*
X189913833Y-114757925D02*
X189913833Y-113757925D01*
X189913833Y-114710306D02*
X189818595Y-114757925D01*
X189818595Y-114757925D02*
X189628119Y-114757925D01*
X189628119Y-114757925D02*
X189532881Y-114710306D01*
X189532881Y-114710306D02*
X189485262Y-114662686D01*
X189485262Y-114662686D02*
X189437643Y-114567448D01*
X189437643Y-114567448D02*
X189437643Y-114281734D01*
X189437643Y-114281734D02*
X189485262Y-114186496D01*
X189485262Y-114186496D02*
X189532881Y-114138877D01*
X189532881Y-114138877D02*
X189628119Y-114091258D01*
X189628119Y-114091258D02*
X189818595Y-114091258D01*
X189818595Y-114091258D02*
X189913833Y-114138877D01*
X190294786Y-114091258D02*
X190532881Y-114757925D01*
X190770976Y-114091258D02*
X190532881Y-114757925D01*
X190532881Y-114757925D02*
X190437643Y-114996020D01*
X190437643Y-114996020D02*
X190390024Y-115043639D01*
X190390024Y-115043639D02*
X190294786Y-115091258D01*
X191913834Y-114757925D02*
X191913834Y-113757925D01*
X191913834Y-114234115D02*
X192485262Y-114234115D01*
X192485262Y-114757925D02*
X192485262Y-113757925D01*
X193390024Y-114757925D02*
X193390024Y-114234115D01*
X193390024Y-114234115D02*
X193342405Y-114138877D01*
X193342405Y-114138877D02*
X193247167Y-114091258D01*
X193247167Y-114091258D02*
X193056691Y-114091258D01*
X193056691Y-114091258D02*
X192961453Y-114138877D01*
X193390024Y-114710306D02*
X193294786Y-114757925D01*
X193294786Y-114757925D02*
X193056691Y-114757925D01*
X193056691Y-114757925D02*
X192961453Y-114710306D01*
X192961453Y-114710306D02*
X192913834Y-114615067D01*
X192913834Y-114615067D02*
X192913834Y-114519829D01*
X192913834Y-114519829D02*
X192961453Y-114424591D01*
X192961453Y-114424591D02*
X193056691Y-114376972D01*
X193056691Y-114376972D02*
X193294786Y-114376972D01*
X193294786Y-114376972D02*
X193390024Y-114329353D01*
X194294786Y-114757925D02*
X194294786Y-114234115D01*
X194294786Y-114234115D02*
X194247167Y-114138877D01*
X194247167Y-114138877D02*
X194151929Y-114091258D01*
X194151929Y-114091258D02*
X193961453Y-114091258D01*
X193961453Y-114091258D02*
X193866215Y-114138877D01*
X194294786Y-114710306D02*
X194199548Y-114757925D01*
X194199548Y-114757925D02*
X193961453Y-114757925D01*
X193961453Y-114757925D02*
X193866215Y-114710306D01*
X193866215Y-114710306D02*
X193818596Y-114615067D01*
X193818596Y-114615067D02*
X193818596Y-114519829D01*
X193818596Y-114519829D02*
X193866215Y-114424591D01*
X193866215Y-114424591D02*
X193961453Y-114376972D01*
X193961453Y-114376972D02*
X194199548Y-114376972D01*
X194199548Y-114376972D02*
X194294786Y-114329353D01*
X194723358Y-114710306D02*
X194818596Y-114757925D01*
X194818596Y-114757925D02*
X195009072Y-114757925D01*
X195009072Y-114757925D02*
X195104310Y-114710306D01*
X195104310Y-114710306D02*
X195151929Y-114615067D01*
X195151929Y-114615067D02*
X195151929Y-114567448D01*
X195151929Y-114567448D02*
X195104310Y-114472210D01*
X195104310Y-114472210D02*
X195009072Y-114424591D01*
X195009072Y-114424591D02*
X194866215Y-114424591D01*
X194866215Y-114424591D02*
X194770977Y-114376972D01*
X194770977Y-114376972D02*
X194723358Y-114281734D01*
X194723358Y-114281734D02*
X194723358Y-114234115D01*
X194723358Y-114234115D02*
X194770977Y-114138877D01*
X194770977Y-114138877D02*
X194866215Y-114091258D01*
X194866215Y-114091258D02*
X195009072Y-114091258D01*
X195009072Y-114091258D02*
X195104310Y-114138877D01*
X195628120Y-114710306D02*
X195628120Y-114757925D01*
X195628120Y-114757925D02*
X195580501Y-114853163D01*
X195580501Y-114853163D02*
X195532882Y-114900782D01*
X196818596Y-114757925D02*
X196818596Y-113757925D01*
X196818596Y-113757925D02*
X197390024Y-114757925D01*
X197390024Y-114757925D02*
X197390024Y-113757925D01*
X198056691Y-114281734D02*
X198056691Y-114757925D01*
X197723358Y-113757925D02*
X198056691Y-114281734D01*
X198056691Y-114281734D02*
X198390024Y-113757925D01*
X198723358Y-113757925D02*
X198723358Y-114567448D01*
X198723358Y-114567448D02*
X198770977Y-114662686D01*
X198770977Y-114662686D02*
X198818596Y-114710306D01*
X198818596Y-114710306D02*
X198913834Y-114757925D01*
X198913834Y-114757925D02*
X199104310Y-114757925D01*
X199104310Y-114757925D02*
X199199548Y-114710306D01*
X199199548Y-114710306D02*
X199247167Y-114662686D01*
X199247167Y-114662686D02*
X199294786Y-114567448D01*
X199294786Y-114567448D02*
X199294786Y-113757925D01*
X175961450Y-116367869D02*
X175961450Y-115367869D01*
X175961450Y-115367869D02*
X176294783Y-116082154D01*
X176294783Y-116082154D02*
X176628116Y-115367869D01*
X176628116Y-115367869D02*
X176628116Y-116367869D01*
X177532878Y-116367869D02*
X177532878Y-115844059D01*
X177532878Y-115844059D02*
X177485259Y-115748821D01*
X177485259Y-115748821D02*
X177390021Y-115701202D01*
X177390021Y-115701202D02*
X177199545Y-115701202D01*
X177199545Y-115701202D02*
X177104307Y-115748821D01*
X177532878Y-116320250D02*
X177437640Y-116367869D01*
X177437640Y-116367869D02*
X177199545Y-116367869D01*
X177199545Y-116367869D02*
X177104307Y-116320250D01*
X177104307Y-116320250D02*
X177056688Y-116225011D01*
X177056688Y-116225011D02*
X177056688Y-116129773D01*
X177056688Y-116129773D02*
X177104307Y-116034535D01*
X177104307Y-116034535D02*
X177199545Y-115986916D01*
X177199545Y-115986916D02*
X177437640Y-115986916D01*
X177437640Y-115986916D02*
X177532878Y-115939297D01*
X178009069Y-116367869D02*
X178009069Y-115701202D01*
X178009069Y-115891678D02*
X178056688Y-115796440D01*
X178056688Y-115796440D02*
X178104307Y-115748821D01*
X178104307Y-115748821D02*
X178199545Y-115701202D01*
X178199545Y-115701202D02*
X178294783Y-115701202D01*
X179056688Y-116320250D02*
X178961450Y-116367869D01*
X178961450Y-116367869D02*
X178770974Y-116367869D01*
X178770974Y-116367869D02*
X178675736Y-116320250D01*
X178675736Y-116320250D02*
X178628117Y-116272630D01*
X178628117Y-116272630D02*
X178580498Y-116177392D01*
X178580498Y-116177392D02*
X178580498Y-115891678D01*
X178580498Y-115891678D02*
X178628117Y-115796440D01*
X178628117Y-115796440D02*
X178675736Y-115748821D01*
X178675736Y-115748821D02*
X178770974Y-115701202D01*
X178770974Y-115701202D02*
X178961450Y-115701202D01*
X178961450Y-115701202D02*
X179056688Y-115748821D01*
X179485260Y-116367869D02*
X179485260Y-115367869D01*
X179913831Y-116367869D02*
X179913831Y-115844059D01*
X179913831Y-115844059D02*
X179866212Y-115748821D01*
X179866212Y-115748821D02*
X179770974Y-115701202D01*
X179770974Y-115701202D02*
X179628117Y-115701202D01*
X179628117Y-115701202D02*
X179532879Y-115748821D01*
X179532879Y-115748821D02*
X179485260Y-115796440D01*
X181104308Y-115463107D02*
X181151927Y-115415488D01*
X181151927Y-115415488D02*
X181247165Y-115367869D01*
X181247165Y-115367869D02*
X181485260Y-115367869D01*
X181485260Y-115367869D02*
X181580498Y-115415488D01*
X181580498Y-115415488D02*
X181628117Y-115463107D01*
X181628117Y-115463107D02*
X181675736Y-115558345D01*
X181675736Y-115558345D02*
X181675736Y-115653583D01*
X181675736Y-115653583D02*
X181628117Y-115796440D01*
X181628117Y-115796440D02*
X181056689Y-116367869D01*
X181056689Y-116367869D02*
X181675736Y-116367869D01*
X182294784Y-115367869D02*
X182390022Y-115367869D01*
X182390022Y-115367869D02*
X182485260Y-115415488D01*
X182485260Y-115415488D02*
X182532879Y-115463107D01*
X182532879Y-115463107D02*
X182580498Y-115558345D01*
X182580498Y-115558345D02*
X182628117Y-115748821D01*
X182628117Y-115748821D02*
X182628117Y-115986916D01*
X182628117Y-115986916D02*
X182580498Y-116177392D01*
X182580498Y-116177392D02*
X182532879Y-116272630D01*
X182532879Y-116272630D02*
X182485260Y-116320250D01*
X182485260Y-116320250D02*
X182390022Y-116367869D01*
X182390022Y-116367869D02*
X182294784Y-116367869D01*
X182294784Y-116367869D02*
X182199546Y-116320250D01*
X182199546Y-116320250D02*
X182151927Y-116272630D01*
X182151927Y-116272630D02*
X182104308Y-116177392D01*
X182104308Y-116177392D02*
X182056689Y-115986916D01*
X182056689Y-115986916D02*
X182056689Y-115748821D01*
X182056689Y-115748821D02*
X182104308Y-115558345D01*
X182104308Y-115558345D02*
X182151927Y-115463107D01*
X182151927Y-115463107D02*
X182199546Y-115415488D01*
X182199546Y-115415488D02*
X182294784Y-115367869D01*
X183009070Y-115463107D02*
X183056689Y-115415488D01*
X183056689Y-115415488D02*
X183151927Y-115367869D01*
X183151927Y-115367869D02*
X183390022Y-115367869D01*
X183390022Y-115367869D02*
X183485260Y-115415488D01*
X183485260Y-115415488D02*
X183532879Y-115463107D01*
X183532879Y-115463107D02*
X183580498Y-115558345D01*
X183580498Y-115558345D02*
X183580498Y-115653583D01*
X183580498Y-115653583D02*
X183532879Y-115796440D01*
X183532879Y-115796440D02*
X182961451Y-116367869D01*
X182961451Y-116367869D02*
X183580498Y-116367869D01*
X184437641Y-115367869D02*
X184247165Y-115367869D01*
X184247165Y-115367869D02*
X184151927Y-115415488D01*
X184151927Y-115415488D02*
X184104308Y-115463107D01*
X184104308Y-115463107D02*
X184009070Y-115605964D01*
X184009070Y-115605964D02*
X183961451Y-115796440D01*
X183961451Y-115796440D02*
X183961451Y-116177392D01*
X183961451Y-116177392D02*
X184009070Y-116272630D01*
X184009070Y-116272630D02*
X184056689Y-116320250D01*
X184056689Y-116320250D02*
X184151927Y-116367869D01*
X184151927Y-116367869D02*
X184342403Y-116367869D01*
X184342403Y-116367869D02*
X184437641Y-116320250D01*
X184437641Y-116320250D02*
X184485260Y-116272630D01*
X184485260Y-116272630D02*
X184532879Y-116177392D01*
X184532879Y-116177392D02*
X184532879Y-115939297D01*
X184532879Y-115939297D02*
X184485260Y-115844059D01*
X184485260Y-115844059D02*
X184437641Y-115796440D01*
X184437641Y-115796440D02*
X184342403Y-115748821D01*
X184342403Y-115748821D02*
X184151927Y-115748821D01*
X184151927Y-115748821D02*
X184056689Y-115796440D01*
X184056689Y-115796440D02*
X184009070Y-115844059D01*
X184009070Y-115844059D02*
X183961451Y-115939297D01*
D11*
X76866666Y-112904819D02*
X76533333Y-112428628D01*
X76295238Y-112904819D02*
X76295238Y-111904819D01*
X76295238Y-111904819D02*
X76676190Y-111904819D01*
X76676190Y-111904819D02*
X76771428Y-111952438D01*
X76771428Y-111952438D02*
X76819047Y-112000057D01*
X76819047Y-112000057D02*
X76866666Y-112095295D01*
X76866666Y-112095295D02*
X76866666Y-112238152D01*
X76866666Y-112238152D02*
X76819047Y-112333390D01*
X76819047Y-112333390D02*
X76771428Y-112381009D01*
X76771428Y-112381009D02*
X76676190Y-112428628D01*
X76676190Y-112428628D02*
X76295238Y-112428628D01*
X77295238Y-112381009D02*
X77628571Y-112381009D01*
X77771428Y-112904819D02*
X77295238Y-112904819D01*
X77295238Y-112904819D02*
X77295238Y-111904819D01*
X77295238Y-111904819D02*
X77771428Y-111904819D01*
X78533333Y-112381009D02*
X78200000Y-112381009D01*
X78200000Y-112904819D02*
X78200000Y-111904819D01*
X78200000Y-111904819D02*
X78676190Y-111904819D01*
X79200000Y-111904819D02*
X79200000Y-112142914D01*
X78961905Y-112047676D02*
X79200000Y-112142914D01*
X79200000Y-112142914D02*
X79438095Y-112047676D01*
X79057143Y-112333390D02*
X79200000Y-112142914D01*
X79200000Y-112142914D02*
X79342857Y-112333390D01*
X79961905Y-111904819D02*
X79961905Y-112142914D01*
X79723810Y-112047676D02*
X79961905Y-112142914D01*
X79961905Y-112142914D02*
X80200000Y-112047676D01*
X79819048Y-112333390D02*
X79961905Y-112142914D01*
X79961905Y-112142914D02*
X80104762Y-112333390D01*
X76866666Y-71104819D02*
X76533333Y-70628628D01*
X76295238Y-71104819D02*
X76295238Y-70104819D01*
X76295238Y-70104819D02*
X76676190Y-70104819D01*
X76676190Y-70104819D02*
X76771428Y-70152438D01*
X76771428Y-70152438D02*
X76819047Y-70200057D01*
X76819047Y-70200057D02*
X76866666Y-70295295D01*
X76866666Y-70295295D02*
X76866666Y-70438152D01*
X76866666Y-70438152D02*
X76819047Y-70533390D01*
X76819047Y-70533390D02*
X76771428Y-70581009D01*
X76771428Y-70581009D02*
X76676190Y-70628628D01*
X76676190Y-70628628D02*
X76295238Y-70628628D01*
X77295238Y-70581009D02*
X77628571Y-70581009D01*
X77771428Y-71104819D02*
X77295238Y-71104819D01*
X77295238Y-71104819D02*
X77295238Y-70104819D01*
X77295238Y-70104819D02*
X77771428Y-70104819D01*
X78533333Y-70581009D02*
X78200000Y-70581009D01*
X78200000Y-71104819D02*
X78200000Y-70104819D01*
X78200000Y-70104819D02*
X78676190Y-70104819D01*
X79200000Y-70104819D02*
X79200000Y-70342914D01*
X78961905Y-70247676D02*
X79200000Y-70342914D01*
X79200000Y-70342914D02*
X79438095Y-70247676D01*
X79057143Y-70533390D02*
X79200000Y-70342914D01*
X79200000Y-70342914D02*
X79342857Y-70533390D01*
X79961905Y-70104819D02*
X79961905Y-70342914D01*
X79723810Y-70247676D02*
X79961905Y-70342914D01*
X79961905Y-70342914D02*
X80200000Y-70247676D01*
X79819048Y-70533390D02*
X79961905Y-70342914D01*
X79961905Y-70342914D02*
X80104762Y-70533390D01*
X207466666Y-112804819D02*
X207133333Y-112328628D01*
X206895238Y-112804819D02*
X206895238Y-111804819D01*
X206895238Y-111804819D02*
X207276190Y-111804819D01*
X207276190Y-111804819D02*
X207371428Y-111852438D01*
X207371428Y-111852438D02*
X207419047Y-111900057D01*
X207419047Y-111900057D02*
X207466666Y-111995295D01*
X207466666Y-111995295D02*
X207466666Y-112138152D01*
X207466666Y-112138152D02*
X207419047Y-112233390D01*
X207419047Y-112233390D02*
X207371428Y-112281009D01*
X207371428Y-112281009D02*
X207276190Y-112328628D01*
X207276190Y-112328628D02*
X206895238Y-112328628D01*
X207895238Y-112281009D02*
X208228571Y-112281009D01*
X208371428Y-112804819D02*
X207895238Y-112804819D01*
X207895238Y-112804819D02*
X207895238Y-111804819D01*
X207895238Y-111804819D02*
X208371428Y-111804819D01*
X209133333Y-112281009D02*
X208800000Y-112281009D01*
X208800000Y-112804819D02*
X208800000Y-111804819D01*
X208800000Y-111804819D02*
X209276190Y-111804819D01*
X209800000Y-111804819D02*
X209800000Y-112042914D01*
X209561905Y-111947676D02*
X209800000Y-112042914D01*
X209800000Y-112042914D02*
X210038095Y-111947676D01*
X209657143Y-112233390D02*
X209800000Y-112042914D01*
X209800000Y-112042914D02*
X209942857Y-112233390D01*
X210561905Y-111804819D02*
X210561905Y-112042914D01*
X210323810Y-111947676D02*
X210561905Y-112042914D01*
X210561905Y-112042914D02*
X210800000Y-111947676D01*
X210419048Y-112233390D02*
X210561905Y-112042914D01*
X210561905Y-112042914D02*
X210704762Y-112233390D01*
X208066666Y-70904819D02*
X207733333Y-70428628D01*
X207495238Y-70904819D02*
X207495238Y-69904819D01*
X207495238Y-69904819D02*
X207876190Y-69904819D01*
X207876190Y-69904819D02*
X207971428Y-69952438D01*
X207971428Y-69952438D02*
X208019047Y-70000057D01*
X208019047Y-70000057D02*
X208066666Y-70095295D01*
X208066666Y-70095295D02*
X208066666Y-70238152D01*
X208066666Y-70238152D02*
X208019047Y-70333390D01*
X208019047Y-70333390D02*
X207971428Y-70381009D01*
X207971428Y-70381009D02*
X207876190Y-70428628D01*
X207876190Y-70428628D02*
X207495238Y-70428628D01*
X208495238Y-70381009D02*
X208828571Y-70381009D01*
X208971428Y-70904819D02*
X208495238Y-70904819D01*
X208495238Y-70904819D02*
X208495238Y-69904819D01*
X208495238Y-69904819D02*
X208971428Y-69904819D01*
X209733333Y-70381009D02*
X209400000Y-70381009D01*
X209400000Y-70904819D02*
X209400000Y-69904819D01*
X209400000Y-69904819D02*
X209876190Y-69904819D01*
X210400000Y-69904819D02*
X210400000Y-70142914D01*
X210161905Y-70047676D02*
X210400000Y-70142914D01*
X210400000Y-70142914D02*
X210638095Y-70047676D01*
X210257143Y-70333390D02*
X210400000Y-70142914D01*
X210400000Y-70142914D02*
X210542857Y-70333390D01*
X211161905Y-69904819D02*
X211161905Y-70142914D01*
X210923810Y-70047676D02*
X211161905Y-70142914D01*
X211161905Y-70142914D02*
X211400000Y-70047676D01*
X211019048Y-70333390D02*
X211161905Y-70142914D01*
X211161905Y-70142914D02*
X211304762Y-70333390D01*
X132276666Y-81968819D02*
X132276666Y-82683104D01*
X132276666Y-82683104D02*
X132229047Y-82825961D01*
X132229047Y-82825961D02*
X132133809Y-82921200D01*
X132133809Y-82921200D02*
X131990952Y-82968819D01*
X131990952Y-82968819D02*
X131895714Y-82968819D01*
X132705238Y-82064057D02*
X132752857Y-82016438D01*
X132752857Y-82016438D02*
X132848095Y-81968819D01*
X132848095Y-81968819D02*
X133086190Y-81968819D01*
X133086190Y-81968819D02*
X133181428Y-82016438D01*
X133181428Y-82016438D02*
X133229047Y-82064057D01*
X133229047Y-82064057D02*
X133276666Y-82159295D01*
X133276666Y-82159295D02*
X133276666Y-82254533D01*
X133276666Y-82254533D02*
X133229047Y-82397390D01*
X133229047Y-82397390D02*
X132657619Y-82968819D01*
X132657619Y-82968819D02*
X133276666Y-82968819D01*
X86676666Y-81868819D02*
X86676666Y-82583104D01*
X86676666Y-82583104D02*
X86629047Y-82725961D01*
X86629047Y-82725961D02*
X86533809Y-82821200D01*
X86533809Y-82821200D02*
X86390952Y-82868819D01*
X86390952Y-82868819D02*
X86295714Y-82868819D01*
X87057619Y-81868819D02*
X87676666Y-81868819D01*
X87676666Y-81868819D02*
X87343333Y-82249771D01*
X87343333Y-82249771D02*
X87486190Y-82249771D01*
X87486190Y-82249771D02*
X87581428Y-82297390D01*
X87581428Y-82297390D02*
X87629047Y-82345009D01*
X87629047Y-82345009D02*
X87676666Y-82440247D01*
X87676666Y-82440247D02*
X87676666Y-82678342D01*
X87676666Y-82678342D02*
X87629047Y-82773580D01*
X87629047Y-82773580D02*
X87581428Y-82821200D01*
X87581428Y-82821200D02*
X87486190Y-82868819D01*
X87486190Y-82868819D02*
X87200476Y-82868819D01*
X87200476Y-82868819D02*
X87105238Y-82821200D01*
X87105238Y-82821200D02*
X87057619Y-82773580D01*
X109366666Y-95488819D02*
X109366666Y-96203104D01*
X109366666Y-96203104D02*
X109319047Y-96345961D01*
X109319047Y-96345961D02*
X109223809Y-96441200D01*
X109223809Y-96441200D02*
X109080952Y-96488819D01*
X109080952Y-96488819D02*
X108985714Y-96488819D01*
X110366666Y-96488819D02*
X109795238Y-96488819D01*
X110080952Y-96488819D02*
X110080952Y-95488819D01*
X110080952Y-95488819D02*
X109985714Y-95631676D01*
X109985714Y-95631676D02*
X109890476Y-95726914D01*
X109890476Y-95726914D02*
X109795238Y-95774533D01*
X84838572Y-104821200D02*
X84981429Y-104868819D01*
X84981429Y-104868819D02*
X85219524Y-104868819D01*
X85219524Y-104868819D02*
X85314762Y-104821200D01*
X85314762Y-104821200D02*
X85362381Y-104773580D01*
X85362381Y-104773580D02*
X85410000Y-104678342D01*
X85410000Y-104678342D02*
X85410000Y-104583104D01*
X85410000Y-104583104D02*
X85362381Y-104487866D01*
X85362381Y-104487866D02*
X85314762Y-104440247D01*
X85314762Y-104440247D02*
X85219524Y-104392628D01*
X85219524Y-104392628D02*
X85029048Y-104345009D01*
X85029048Y-104345009D02*
X84933810Y-104297390D01*
X84933810Y-104297390D02*
X84886191Y-104249771D01*
X84886191Y-104249771D02*
X84838572Y-104154533D01*
X84838572Y-104154533D02*
X84838572Y-104059295D01*
X84838572Y-104059295D02*
X84886191Y-103964057D01*
X84886191Y-103964057D02*
X84933810Y-103916438D01*
X84933810Y-103916438D02*
X85029048Y-103868819D01*
X85029048Y-103868819D02*
X85267143Y-103868819D01*
X85267143Y-103868819D02*
X85410000Y-103916438D01*
X85838572Y-104868819D02*
X85838572Y-103868819D01*
X85838572Y-103868819D02*
X86171905Y-104583104D01*
X86171905Y-104583104D02*
X86505238Y-103868819D01*
X86505238Y-103868819D02*
X86505238Y-104868819D01*
X86933810Y-104583104D02*
X87410000Y-104583104D01*
X86838572Y-104868819D02*
X87171905Y-103868819D01*
X87171905Y-103868819D02*
X87505238Y-104868819D01*
X87838572Y-104487866D02*
X88600477Y-104487866D01*
X89076667Y-104868819D02*
X89076667Y-104202152D01*
X89076667Y-103868819D02*
X89029048Y-103916438D01*
X89029048Y-103916438D02*
X89076667Y-103964057D01*
X89076667Y-103964057D02*
X89124286Y-103916438D01*
X89124286Y-103916438D02*
X89076667Y-103868819D01*
X89076667Y-103868819D02*
X89076667Y-103964057D01*
X89552857Y-104202152D02*
X89552857Y-104868819D01*
X89552857Y-104297390D02*
X89600476Y-104249771D01*
X89600476Y-104249771D02*
X89695714Y-104202152D01*
X89695714Y-104202152D02*
X89838571Y-104202152D01*
X89838571Y-104202152D02*
X89933809Y-104249771D01*
X89933809Y-104249771D02*
X89981428Y-104345009D01*
X89981428Y-104345009D02*
X89981428Y-104868819D01*
X90981428Y-104868819D02*
X90410000Y-104868819D01*
X90695714Y-104868819D02*
X90695714Y-103868819D01*
X90695714Y-103868819D02*
X90600476Y-104011676D01*
X90600476Y-104011676D02*
X90505238Y-104106914D01*
X90505238Y-104106914D02*
X90410000Y-104154533D01*
X128238571Y-104921200D02*
X128381428Y-104968819D01*
X128381428Y-104968819D02*
X128619523Y-104968819D01*
X128619523Y-104968819D02*
X128714761Y-104921200D01*
X128714761Y-104921200D02*
X128762380Y-104873580D01*
X128762380Y-104873580D02*
X128809999Y-104778342D01*
X128809999Y-104778342D02*
X128809999Y-104683104D01*
X128809999Y-104683104D02*
X128762380Y-104587866D01*
X128762380Y-104587866D02*
X128714761Y-104540247D01*
X128714761Y-104540247D02*
X128619523Y-104492628D01*
X128619523Y-104492628D02*
X128429047Y-104445009D01*
X128429047Y-104445009D02*
X128333809Y-104397390D01*
X128333809Y-104397390D02*
X128286190Y-104349771D01*
X128286190Y-104349771D02*
X128238571Y-104254533D01*
X128238571Y-104254533D02*
X128238571Y-104159295D01*
X128238571Y-104159295D02*
X128286190Y-104064057D01*
X128286190Y-104064057D02*
X128333809Y-104016438D01*
X128333809Y-104016438D02*
X128429047Y-103968819D01*
X128429047Y-103968819D02*
X128667142Y-103968819D01*
X128667142Y-103968819D02*
X128809999Y-104016438D01*
X129238571Y-104968819D02*
X129238571Y-103968819D01*
X129238571Y-103968819D02*
X129571904Y-104683104D01*
X129571904Y-104683104D02*
X129905237Y-103968819D01*
X129905237Y-103968819D02*
X129905237Y-104968819D01*
X130333809Y-104683104D02*
X130809999Y-104683104D01*
X130238571Y-104968819D02*
X130571904Y-103968819D01*
X130571904Y-103968819D02*
X130905237Y-104968819D01*
X131238571Y-104587866D02*
X132000476Y-104587866D01*
X132619523Y-104968819D02*
X132524285Y-104921200D01*
X132524285Y-104921200D02*
X132476666Y-104873580D01*
X132476666Y-104873580D02*
X132429047Y-104778342D01*
X132429047Y-104778342D02*
X132429047Y-104492628D01*
X132429047Y-104492628D02*
X132476666Y-104397390D01*
X132476666Y-104397390D02*
X132524285Y-104349771D01*
X132524285Y-104349771D02*
X132619523Y-104302152D01*
X132619523Y-104302152D02*
X132762380Y-104302152D01*
X132762380Y-104302152D02*
X132857618Y-104349771D01*
X132857618Y-104349771D02*
X132905237Y-104397390D01*
X132905237Y-104397390D02*
X132952856Y-104492628D01*
X132952856Y-104492628D02*
X132952856Y-104778342D01*
X132952856Y-104778342D02*
X132905237Y-104873580D01*
X132905237Y-104873580D02*
X132857618Y-104921200D01*
X132857618Y-104921200D02*
X132762380Y-104968819D01*
X132762380Y-104968819D02*
X132619523Y-104968819D01*
X133809999Y-104302152D02*
X133809999Y-104968819D01*
X133381428Y-104302152D02*
X133381428Y-104825961D01*
X133381428Y-104825961D02*
X133429047Y-104921200D01*
X133429047Y-104921200D02*
X133524285Y-104968819D01*
X133524285Y-104968819D02*
X133667142Y-104968819D01*
X133667142Y-104968819D02*
X133762380Y-104921200D01*
X133762380Y-104921200D02*
X133809999Y-104873580D01*
X134143333Y-104302152D02*
X134524285Y-104302152D01*
X134286190Y-103968819D02*
X134286190Y-104825961D01*
X134286190Y-104825961D02*
X134333809Y-104921200D01*
X134333809Y-104921200D02*
X134429047Y-104968819D01*
X134429047Y-104968819D02*
X134524285Y-104968819D01*
X135381428Y-104968819D02*
X134810000Y-104968819D01*
X135095714Y-104968819D02*
X135095714Y-103968819D01*
X135095714Y-103968819D02*
X135000476Y-104111676D01*
X135000476Y-104111676D02*
X134905238Y-104206914D01*
X134905238Y-104206914D02*
X134810000Y-104254533D01*
D12*
%TO.C,J2*%
X132940000Y-84084000D02*
X135540000Y-84084000D01*
X130340000Y-84084000D02*
X131670000Y-84084000D01*
X130340000Y-85414000D02*
X130340000Y-84084000D01*
X135540000Y-86744000D02*
X135540000Y-84084000D01*
X132940000Y-86744000D02*
X132940000Y-84084000D01*
X132940000Y-86744000D02*
X135540000Y-86744000D01*
%TO.C,J3*%
X87380000Y-83784000D02*
X84780000Y-83784000D01*
X87380000Y-83784000D02*
X87380000Y-86444000D01*
X84780000Y-83784000D02*
X84780000Y-86444000D01*
X89980000Y-85114000D02*
X89980000Y-86444000D01*
X89980000Y-86444000D02*
X88650000Y-86444000D01*
X87380000Y-86444000D02*
X84780000Y-86444000D01*
D13*
%TO.C,J1*%
X100479800Y-86813800D02*
X100479800Y-105254200D01*
X100479800Y-105254200D02*
X118920200Y-105254200D01*
X118920200Y-86813800D02*
X100479800Y-86813800D01*
X118920200Y-105254200D02*
X118920200Y-86813800D01*
X110017500Y-88858500D02*
G75*
G02*
X109382500Y-88858500I-317500J0D01*
G01*
X109382500Y-88858500D02*
G75*
G02*
X110017500Y-88858500I317500J0D01*
G01*
D12*
%TO.C,SMA-in1*%
X84795000Y-97049000D02*
X84795000Y-99949000D01*
X86700000Y-95144000D02*
X89600000Y-95144000D01*
X86700000Y-101854000D02*
X89600000Y-101854000D01*
X91505000Y-97049000D02*
X91505000Y-99949000D01*
%TO.C,SMA-out1*%
X128540000Y-97004000D02*
X128540000Y-99904000D01*
X130445000Y-95099000D02*
X133345000Y-95099000D01*
X130445000Y-101809000D02*
X133345000Y-101809000D01*
X135250000Y-97004000D02*
X135250000Y-99904000D01*
%TD*%
M02*
